<svg width="1991" height="2501" viewBox="0 0 1991 2501" fill="none" xmlns="http://www.w3.org/2000/svg">
<path d="M1897.29 1210.35C1945.96 1282.33 1973.37 1366.6 1976.44 1453.44C1979.26 1540.27 1957.75 1626.33 1913.94 1701.39C1870.14 1776.44 1806.11 1837.66 1729.26 1877.87L681.625 2432.68C573.787 2485.96 449.3 2494.93 334.803 2457.79C220.305 2420.64 124.763 2340.21 68.6669 2233.91C12.5709 2127.36 0.0197183 2003.13 34.0872 1887.6C67.8985 1772.08 145.511 1674.49 250.275 1615.32L426.503 1521.57L278.707 1461.12C199.045 1426.28 131.167 1369.68 82.2427 1297.7C33.5749 1225.72 6.16723 1141.45 3.09347 1054.62C0.275866 967.783 21.7922 881.718 65.5932 806.667C109.394 731.616 173.431 670.397 250.275 630.182L1298.17 75.882C1406.26 18.7614 1532.54 6.97864 1649.35 42.8391C1766.15 78.9557 1863.74 159.898 1920.86 267.992C1977.98 376.085 1990.02 502.622 1953.9 619.424C1918.04 736.227 1837.1 834.075 1729.26 891.708L1553.03 985.201L1700.83 1046.93C1780.49 1081.77 1848.37 1138.63 1897.29 1210.35Z" fill="#FF0000"/>
<path d="M743.356 1580.74V927.312L1359.39 1254.16L743.356 1580.74Z" fill="white"/>
</svg>
